<mxfile host="app.diagrams.net" modified="2023-10-04T14:11:44.137Z" agent="Mozilla/5.0 (Windows NT 10.0; Win64; x64) AppleWebKit/537.36 (KHTML, like Gecko) Chrome/117.0.0.0 Safari/537.36 Edg/117.0.2045.47" version="22.0.2" etag="WG8MjQjL7lNjtGhQjbNo" type="github">
  <diagram name="페이지-1" id="2Q5sGiyY86qmczEgXK3w">
    <mxGraphModel>
      <root>
        <mxCell id="0" />
        <mxCell id="1" parent="0" />
      </root>
    </mxGraphModel>
  </diagram>
</mxfile>
